<svg width="175" height="42" viewBox="0 0 175 42" fill="none" xmlns="http://www.w3.org/2000/svg">
<path d="M99.7129 39.1839L101.006 29.582H103.028L102.595 32.4414C102.883 31.981 103.503 31.4055 104.261 31.4055C104.911 31.4055 105.494 31.9507 105.494 32.8533C105.494 33.1078 105.494 33.4713 105.422 33.962L105.025 36.785C104.773 38.6448 104.237 39.3657 103.196 39.3657C102.24 39.3657 101.951 38.8447 101.734 38.1844L101.662 39.1839H99.7129ZM102.047 37.1787C102.047 37.4816 102.18 37.6391 102.408 37.6391C102.745 37.6391 102.914 37.3362 103.04 36.3488L103.341 34.2285C103.389 33.8166 103.389 33.6469 103.389 33.544C103.389 33.3622 103.256 33.1441 103.028 33.1441C102.595 33.1441 102.492 33.6893 102.402 34.277L102.137 36.1549C102.077 36.5548 102.041 36.997 102.041 37.1787" fill="white"/>
<path d="M106.265 40.5697L106.469 39.1098H106.674C107.107 39.1098 107.203 39.0492 107.203 38.7584V38.5645L106.674 31.5918H108.719L108.599 36.9592L109.808 31.5918H111.83L109.628 38.7705C109.098 40.5213 108.274 40.5697 107.269 40.5697H106.265Z" fill="white"/>
<path d="M117.045 39.1839L118.086 31.4297H116.444L116.684 29.582H122.063L121.798 31.4297H120.252L119.211 39.1839H117.045Z" fill="white"/>
<path d="M121.883 39.1835L122.912 31.5989H124.807L124.566 32.9862C124.963 31.9624 125.631 31.3809 126.208 31.3809L125.884 33.7677H125.595C124.777 33.7677 124.554 34.4159 124.458 35.1429L123.916 39.1835H121.883Z" fill="white"/>
<path d="M127.448 39.3405C126.624 39.3405 126.167 38.7347 126.167 37.517C126.167 36.6507 126.287 35.5179 127.653 35.0211L128.898 34.5607C129.187 34.4517 129.391 34.3668 129.487 34.2699C129.596 34.1488 129.68 33.858 129.68 33.6157C129.68 33.337 129.656 32.9432 129.283 32.9432C128.687 32.9432 128.687 33.3431 128.543 33.9186H126.672C126.9 31.9194 128.23 31.3984 129.355 31.3984C130.071 31.3984 131.653 31.6892 131.653 33.0038C131.653 33.1492 131.653 33.6702 131.533 34.5486L131.04 38.2258C131.028 38.3227 131.016 38.456 131.016 38.565C131.016 38.7831 131.04 38.9891 131.16 39.0254V39.1829H129.06L129.12 38.5105C128.687 39.0315 128.272 39.3405 127.442 39.3405M128.182 37.3231C128.182 37.7472 128.35 37.9653 128.639 37.9653C129.084 37.9653 129.169 37.3595 129.217 36.99L129.385 35.7238C128.609 36.0994 128.188 36.1964 128.188 37.3292" fill="white"/>
<path d="M132.267 39.1827L133.295 31.5982H135.239L135.094 32.5371C135.491 31.9798 135.967 31.4043 137.001 31.4043C137.922 31.4043 138.054 32.3433 138.054 32.7795C138.054 32.9006 138.054 33.2035 138.006 33.6215L137.248 39.1827H135.227L135.882 34.2031C135.918 33.9244 135.93 33.6276 135.93 33.5428C135.93 33.361 135.75 33.1672 135.57 33.1672C135.16 33.1793 135.052 33.5791 134.98 34.1425L134.288 39.1827H132.267Z" fill="white"/>
<path d="M140.635 39.3645C139.137 39.3645 138.542 38.4861 138.542 37.4441C138.542 37.2381 138.566 37.02 138.602 36.802H140.401C140.388 36.9352 140.364 37.1897 140.364 37.4078C140.364 37.6258 140.473 37.9045 140.725 37.9045C141.074 37.9045 141.207 37.6622 141.207 37.2381C141.207 36.8141 140.966 36.5718 140.81 36.4203L140.22 35.8145C139.655 35.2451 139.095 34.6695 139.095 33.6821C139.095 32.3675 139.895 31.4043 141.429 31.4043C142.963 31.4043 143.535 32.1737 143.535 33.4337C143.535 33.5428 143.523 33.676 143.511 33.8093H141.724C141.736 33.6276 141.76 33.4701 141.76 33.2883C141.76 33.1066 141.688 32.8279 141.387 32.8279C141.038 32.8279 140.966 33.2035 140.966 33.3974C140.966 33.6882 141.171 33.9426 141.79 34.615L142.284 35.1481C142.753 35.6691 143.156 36.1235 143.156 37.0564C143.156 38.4073 142.248 39.3705 140.629 39.3705" fill="white"/>
<path d="M143.962 39.1839L144.991 31.5993H146.995L145.978 39.1839H143.962ZM145.027 31.0662L145.244 29.582H147.241L147.025 31.0662H145.027Z" fill="white"/>
<path d="M147.259 39.1823L147.488 37.5648L150.442 33.1667H148.108L148.324 31.5977H152.957L152.77 33.0576L149.69 37.6375H152.193L151.976 39.1823H147.259Z" fill="white"/>
<path d="M153.173 39.1839L154.202 31.5993H156.206L155.189 39.1839H153.173ZM154.238 31.0662L154.455 29.582H156.458L156.242 31.0662H154.244H154.238Z" fill="white"/>
<path d="M158.997 39.3645C158.708 39.3645 156.819 39.2312 156.819 37.3351C156.819 37.1533 157.264 33.5488 157.264 33.5488C157.541 31.5194 159.075 31.4043 160.007 31.4043C161.157 31.4043 162.258 32.0464 162.258 33.2156C162.258 33.3974 161.752 37.22 161.752 37.22C161.62 38.2074 161.138 39.3645 158.997 39.3645ZM158.816 37.3835C158.816 37.6016 158.949 37.8076 159.189 37.8076C159.526 37.8076 159.646 37.7107 159.743 37.0625C159.743 37.0625 160.236 33.4701 160.236 33.4095C160.236 33.1429 160.104 32.9491 159.839 32.9491C159.574 32.9491 159.382 33.0581 159.31 33.6155C159.31 33.6155 158.816 37.2563 158.816 37.3896" fill="white"/>
<path d="M162.757 39.1827L163.786 31.5982H165.729L165.584 32.5371C165.982 31.9798 166.457 31.4043 167.492 31.4043C168.412 31.4043 168.544 32.3433 168.544 32.7795C168.544 32.9006 168.544 33.2035 168.496 33.6215L167.738 39.1827H165.717L166.379 34.2031C166.415 33.9244 166.427 33.6276 166.427 33.5428C166.427 33.361 166.246 33.1672 166.066 33.1672C165.657 33.1793 165.548 33.5791 165.476 34.1425L164.784 39.1827H162.763H162.757Z" fill="white"/>
<path d="M7.44202 23.3239C5.59504 23.3239 2.43652 22.5788 2.43652 18.5503C2.43652 17.9687 2.48465 17.4416 2.55685 16.8116L3.70595 8.6091C4.09099 6.0284 5.16789 3.375 9.95681 3.375C14.1982 3.375 14.9864 6.24648 14.9864 7.13701C14.9864 7.47625 15.0104 8.41524 14.9142 9.16037L14.6495 10.9232H10.5283L10.8171 8.77872C10.8653 8.5364 10.8893 8.26985 10.8893 8.03359C10.8893 7.21576 10.4802 6.73112 9.81242 6.73112C8.73551 6.73112 8.27828 7.42779 8.06169 8.99681L6.88853 17.3144C6.81634 17.8718 6.79227 18.2049 6.79227 18.3746C6.79227 19.0531 6.88853 19.9436 7.96544 19.9436C8.89795 19.9436 9.28299 19.677 9.6199 17.6052L9.98087 15.3153H14.1261L13.8132 17.3871C13.001 22.7908 10.7931 23.3179 7.44202 23.3179" fill="white"/>
<path d="M20.1603 23.3237C14.8901 23.3237 14.8901 19.5375 14.8901 18.6227C14.8901 18.2108 16.304 7.57904 16.304 7.57904C16.5927 5.45875 18.2893 3.38086 22.3142 3.38086C23.7039 3.38086 27.44 3.93819 27.44 7.7002C27.44 8.20907 26.1946 17.8776 26.1946 17.8776C25.8337 20.6522 24.7086 23.3298 20.1603 23.3298M19.2038 18.9378C19.2038 19.7314 19.9678 20.0221 20.2807 20.0221C20.786 20.0221 21.526 19.9252 21.7907 18.0472C21.7907 18.0472 23.0361 8.33023 23.0361 8.11214C23.0361 7.86983 23.0602 6.78545 21.9833 6.78545C20.9064 6.78545 20.6416 7.65174 20.4732 8.83304C20.4732 8.83304 19.2038 18.8651 19.2038 18.9378Z" fill="white"/>
<path d="M27.3496 22.9419L29.9306 3.74414H34.2683L32.2589 19.2465H37.2643L36.8312 22.9419H27.3496Z" fill="white"/>
<path d="M38.3896 22.9419L40.9766 3.74414H45.3083L43.2989 19.2465H48.3044L47.8712 22.9419H38.3896Z" fill="white"/>
<path d="M49.4053 22.9419L51.9682 3.74414H61.6964L61.167 7.36076H55.7765L55.253 11.2924H60.4992L60.042 14.8605H54.7958L54.1521 19.2465H59.7532L59.2779 22.9419H49.4053Z" fill="white"/>
<path d="M65.1435 23.3237C62.5806 23.3237 61.624 21.3246 61.624 18.6954C61.624 18.4289 61.624 18.1442 61.7684 16.9568L62.8694 9.09354C63.3988 5.28307 64.9751 3.38086 69.2887 3.38086C71.4906 3.38086 74.1739 4.34408 74.1739 7.86377C74.1739 8.17878 74.1739 8.44533 74.1498 8.6089L73.9092 10.5172H69.8362L70.0528 8.59073C70.0528 8.46957 70.0768 8.27571 70.0768 8.13032C70.0768 7.14287 69.4271 6.82785 68.8796 6.82785C67.6824 6.82785 67.4417 7.93646 67.3214 8.80275L66.1001 17.5808C66.0279 18.0654 66.0279 18.3986 66.0279 18.544C66.0279 19.4587 66.5573 20.0161 67.0807 20.0161C67.9651 20.0161 68.5668 19.6041 68.8315 17.7019L69.0721 15.9875H67.5139L68.0433 12.4921H73.5542L72.1404 22.936H68.5487L68.8375 21.1247C68.0975 22.2333 67.1349 23.3177 65.1495 23.3177" fill="white"/>
<path d="M74.1499 22.9419L76.7128 3.74414H86.435L85.9116 7.36076H80.5211L79.9917 11.2924H85.2378L84.7806 14.8605H79.5404L78.8907 19.2465H84.4978L84.0165 22.9419H74.1499Z" fill="white"/>
<path d="M153.781 18.2275L158.552 10.3945L157.631 18.2275H153.781Z" fill="#231F20"/>
<path d="M148.45 8.41406H152.054L147.247 16.2349L148.45 8.41406Z" fill="#231F20"/>
<path d="M146.218 22.9225L146.621 19.6452L154.244 7.25052H148.535L148.968 3.7793H159.55L159.039 7.25052L151.633 19.3968H157.613L157.126 22.9225H146.218Z" fill="white"/>
<path d="M126.437 22.9419L129.024 3.74414H135.299C138.175 3.74414 139.516 4.82852 139.516 7.72424C139.516 10.4261 138.921 12.4737 137.146 13.0068C138.439 13.7035 138.512 14.9332 138.512 16.1145C138.512 16.3084 138.512 16.6234 138.415 17.4655L138.03 20.555C138.03 20.6762 137.958 21.3002 137.958 21.494C137.958 22.1483 138.151 22.3603 138.247 22.4815V22.9419H133.675C133.675 22.3119 133.65 21.7121 133.65 21.0821C133.65 20.9852 133.699 20.4763 133.771 19.8523C133.771 19.8523 134.228 15.9207 134.228 15.8238C134.228 14.6667 133.416 14.594 131.93 14.594L130.781 22.9358H126.443L126.437 22.9419ZM132.351 11.4135C132.616 11.4135 132.88 11.4378 133.139 11.4378C133.783 11.4378 134.168 11.3409 134.409 11.147C135.058 10.6442 135.269 9.19633 135.269 8.61476C135.269 7.19113 134.595 7.02151 134.192 7.02151H132.971L132.351 11.4135Z" fill="white"/>
<path d="M139.757 22.9419L142.272 3.74414H146.706L144.191 22.9419H139.757Z" fill="white"/>
<path d="M159.37 22.9419L161.933 3.74414H171.655L171.125 7.36076H165.741L165.211 11.2924H170.458L170 14.8605H164.754L164.11 19.2465H169.718L169.236 22.9419H159.37Z" fill="white"/>
<path d="M125.33 9.64994L107.744 2.62874C107.564 2.55604 107.263 2.55604 107.083 2.62874L89.4972 9.64994C89.3167 9.72264 89.3167 9.8438 89.4972 9.91649L96.5241 12.7213C95.7962 13.0545 95.724 13.1999 95.6758 13.309C95.3149 14.1026 95.357 21.9052 95.369 23.4621H95.9947C95.9646 19.0883 96.0368 14.1934 96.2354 13.5937C96.3557 13.4786 104.935 9.53484 105.53 9.29858L97.9861 13.309L107.083 16.9377C107.263 17.0104 107.564 17.0104 107.744 16.9377L125.33 9.91649C125.51 9.8438 125.51 9.72264 125.33 9.64994Z" fill="#231F20"/>
<path d="M107.414 18.1493C107.227 18.1493 106.938 18.125 106.656 18.0099L97.8418 14.4902V21.8083C97.8418 23.0017 102.125 23.9649 107.414 23.9649C112.702 23.9649 116.985 22.9956 116.985 21.8083V14.4902L108.172 18.0099C107.889 18.125 107.606 18.1432 107.414 18.1432" fill="#231F20"/>
<path d="M96.4283 25.6433V24.25C96.4283 23.9047 95.7244 23.8926 95.7244 23.8926C95.7244 23.8926 95.0205 23.9108 95.0205 24.25V25.6433C95.0205 25.9584 95.7244 25.9584 95.7244 25.9584C95.7244 25.9584 96.4283 25.9584 96.4283 25.6433Z" fill="#231F20"/>
<path d="M96.428 26.1094C95.7662 26.4971 95.1044 26.1094 95.1044 26.1094C94.4065 26.4426 94.3524 27.6905 94.3524 28.3327C94.3524 28.9748 94.0215 29.6775 94.0215 29.6775L94.5449 30.3439C94.5449 30.3439 94.966 29.5806 94.8337 28.9021C94.7013 28.2297 94.9059 27.7996 94.9059 27.7996C94.9059 27.7996 94.9059 28.06 95.0081 28.6234C95.1104 29.1868 94.7795 30.3257 94.8337 30.4105C94.8878 30.4954 95.6338 30.7498 95.8264 30.2894C96.0189 29.835 95.9647 28.0055 95.9647 28.0055L96.1212 28.6053C96.2776 29.205 96.0369 30.3803 96.0369 30.3803C96.0369 30.3803 96.3979 30.453 96.6265 30.3803C96.8551 30.3076 96.9574 30.1864 96.819 29.9077C96.6807 29.6291 96.9153 28.5931 96.9755 27.7814C97.0657 26.6425 96.4159 26.1154 96.4159 26.1154" fill="#231F20"/>
</svg>
